<?xml version="1.0" encoding="utf-8"?>
<!-- Generator: Adobe Illustrator 16.0.0, SVG Export Plug-In . SVG Version: 6.00 Build 0)  -->
<!DOCTYPE svg PUBLIC "-//W3C//DTD SVG 1.1//EN" "http://www.w3.org/Graphics/SVG/1.1/DTD/svg11.dtd">
<svg version="1.1" id="Layer_1" xmlns="http://www.w3.org/2000/svg" xmlns:xlink="http://www.w3.org/1999/xlink" x="0px" y="0px"
	 width="612px" height="792px" viewBox="0 0 612 792" enable-background="new 0 0 612 792" xml:space="preserve">
<image overflow="visible" width="1275" height="1650" xlink:href="./images/isatcs_first_floor.jpg" transform="matrix(0.48 0 0 0.48 0 0)"></image>
<rect id="room1" x="60" y="519" opacity="0.5" fill="#CD2E2B" width="166" height="144"/>
<rect x="292" y="189" opacity="0.5" fill="#F5EC34" width="91" height="139"/>
<rect x="292" y="328" fill="none" width="91" height="34"/>
<rect x="292" y="362" fill="none" width="91" height="72"/>
<rect x="292" y="491" fill="none" width="91" height="67"/>
<rect x="292" y="558" fill="none" width="91" height="33"/>
<rect x="292" y="591" fill="none" width="91" height="72"/>
<rect x="405" y="173" fill="none" width="81" height="125"/>
<rect x="405" y="298" fill="none" width="81" height="64"/>
<rect x="405" y="362" opacity="0.5" fill="#47A856" width="81" height="72"/>
<rect x="405" y="491" fill="none" width="81" height="136"/>
<rect x="405" y="627" fill="none" width="81" height="31"/>
</svg>

